<svg width="200" height="200" viewBox="0 0 200 200" fill="none" xmlns="http://www.w3.org/2000/svg">
<g clip-path="url(#clip0_4216_30922)">
<circle cx="100" cy="100" r="100" fill="black"/>
<path d="M105.158 56.9741L126.259 69.2177C127.018 69.6476 127.045 70.84 126.259 71.2699L101.186 85.8291C100.428 86.2728 99.5311 86.245 98.8277 85.8291L73.7548 71.2699C72.9825 70.8539 72.9687 69.6337 73.7548 69.2177L94.842 56.9741V33L41 64.2537V126.761V126.47V126.761L61.6459 114.781V90.2939C61.6321 89.4203 62.6526 88.7964 63.4112 89.2678L88.4841 103.827C89.2426 104.271 89.6702 105.061 89.6702 105.879V134.984C89.684 135.857 88.6634 136.481 87.9049 136.01L66.8039 123.766L46.158 135.746L100 167L153.842 135.746L133.196 123.766L112.095 136.01C111.35 136.467 110.302 135.871 110.33 134.984V105.879C110.33 105.006 110.813 104.229 111.516 103.827L136.589 89.2678C137.334 88.8102 138.382 89.3926 138.354 90.2939V114.781L159 126.761V64.2537L105.158 33V56.9741Z" fill="white"/>
</g>
<defs>
<clipPath id="clip0_4216_30922">
<rect width="200" height="200" fill="white"/>
</clipPath>
</defs>
</svg>
